<svg id="Calque_1" data-name="Calque 1" xmlns="http://www.w3.org/2000/svg" viewBox="0 0 1177.48 199.25"><path d="M605.38,201.25q-4.87.25-10.62.25-7.5,0-15-.25t-16-.5v5q10.25.25,15.75,4.87T585.26,226q.24,10.75-5.75,29.75l-23.79,75.57L521.51,226.75q-3-9.25-2.38-13.5a6.86,6.86,0,0,1,5-5.75A42.34,42.34,0,0,1,536,205.75v-5q-5.76.25-15.38.5T500,201.5q-9.51,0-19.13-.25c-6.41-.17-12-.33-16.62-.5v5a14,14,0,0,1,7.62,3q3.63,2.75,6.13,10.5l12.83,38.87L465.42,332.4,429,226.75a42,42,0,0,1-2.13-9.88,11.18,11.18,0,0,1,1.63-7.5q2-2.87,7-3.62v-5q-5,.25-12.88.5t-17.87.25q-9.25,0-19.5-.25t-17.75-.5v5c2.5.17,5.21,1.33,8.12,3.5s5.46,6.33,7.63,12.5l56,156.5a33.63,33.63,0,0,1,4.25-.25h9a33.74,33.74,0,0,1,4.25.25l37-111.39,36.78,111.39a33.63,33.63,0,0,1,4.25-.25h9a33.74,33.74,0,0,1,4.25.25L592,235.5q4.5-14.5,10.5-21.13t11.5-8.62v-5C611.51,200.92,608.63,201.08,605.38,201.25Z" transform="translate(-367.51 -182)"/><path d="M696.76,353.12a35,35,0,0,1-11.38,6,38.86,38.86,0,0,1-10.87,1.63,27.7,27.7,0,0,1-15.25-4.88q-7.5-4.87-12.38-15.62t-4.87-28q0-3.5.12-6.75c.07-1.72.17-3.38.29-5h70.09q0-29.5-12.5-42.5t-34.5-13q-17.76,0-31.63,7.62t-21.75,23.13q-7.87,15.5-7.87,38.75,0,22.75,7.37,37.5T632,374q13,7.25,30,7.25,14,0,24-5.75a52.19,52.19,0,0,0,16.5-14.75,65.21,65.21,0,0,0,9.5-18.5l-4.5-1.5A45.89,45.89,0,0,1,696.76,353.12ZM664,250.25q6.24,0,10,6.25t5.5,16.62a122.57,122.57,0,0,1,1.5,22.63H641.87q1.38-23.92,7.26-34.5Q655.25,250.26,664,250.25Z" transform="translate(-367.51 -182)"/><path d="M776.51,245a58.14,58.14,0,0,1,18.37,2.62q7.88,2.63,11.38,5.13,8.49,5.75,10.5-7.5H822q-.51,7-.75,17.12T821,289.25h-5.25A80.11,80.11,0,0,0,811,271a36.79,36.79,0,0,0-10.13-14.75q-6.63-5.75-17.12-5.75a18.59,18.59,0,0,0-12.25,4.12q-5,4.13-5,11.88a20.38,20.38,0,0,0,4.5,13.12,58.21,58.21,0,0,0,11.62,10.75q7.13,5.13,14.88,10.88,8.25,6.25,15,12.37A52.28,52.28,0,0,1,823.26,327a35.24,35.24,0,0,1,4,17.25,31.08,31.08,0,0,1-6.5,19.62,41.87,41.87,0,0,1-17.13,12.88,60,60,0,0,1-23.62,4.5,54.29,54.29,0,0,1-13.38-1.5A45.81,45.81,0,0,1,756.51,376q-3.25-1.5-6.13-2.88T745,370.75q-2.5-.75-4.38,1.75a18.18,18.18,0,0,0-2.87,7h-5.25q.5-8,.75-19.5t.25-30.5h5.25a95.54,95.54,0,0,0,5.5,23.87q4,10.38,10.87,16.25t17.38,5.88a20.35,20.35,0,0,0,8.25-1.75,15.14,15.14,0,0,0,6.62-5.75A18.35,18.35,0,0,0,790,357.75q0-11-7.13-18.25a180.6,180.6,0,0,0-18.12-15.75q-8-6.5-15.13-12.88a58.93,58.93,0,0,1-11.62-14,33.51,33.51,0,0,1-4.5-17.37q0-11.25,6-19a36.44,36.44,0,0,1,15.87-11.63A57.39,57.39,0,0,1,776.51,245Z" transform="translate(-367.51 -182)"/><path d="M893.25,207.5v41h29.5v5h-29.5v101q0,7.5,2.75,10.62t8.25,3.13a15,15,0,0,0,9-3.38q4.5-3.37,8-11.62l4.25,2.25A44,44,0,0,1,913.38,374q-8.13,7.25-22.13,7.25a45,45,0,0,1-14.5-2.13,26.15,26.15,0,0,1-17.75-20A104,104,0,0,1,857.25,338V253.5h-21v-5h21v-33a93.84,93.84,0,0,0,19.38-1.88A60.35,60.35,0,0,0,893.25,207.5Z" transform="translate(-367.51 -182)"/><path d="M1112.63,249q-5.39.25-10.38.25-3.26,0-7.87-.13l-9.25-.25c-3.09-.08-6-.2-8.63-.37v5q8.51.75,13.5,5t6,12.75q1,8.5-3.25,22.25l-15.87,50.22-32.38-95.47q-4.5,0-9.12.12t-9.13-.12l-27.13,90.21L976.5,267.75q-2.25-6.75-.87-9.75c.91-2,2.75-3.21,5.5-3.63a65.91,65.91,0,0,1,9.62-.62V248.5q-7.5.5-16.12,1t-16.38.5q-10.25,0-18.87-.38t-16.63-1.12v5.25a16.68,16.68,0,0,1,6.88,2q4.13,2,7.62,12l39.5,110.5Q981,378,985,378c2.67,0,5.33.08,8,.25l27.78-92.77,34,92.77q4-.25,8.13-.25c2.75,0,5.45.08,8.12.25L1104.25,275q3.75-11.25,8-15.75a19.21,19.21,0,0,1,9-5.75v-5C1119.08,248.67,1116.21,248.83,1112.63,249Z" transform="translate(-367.51 -182)"/><path d="M1241.5,273.5q-7.76-15-21.5-21.75T1188,245q-17.76,0-31.63,6.75t-21.75,21.75q-7.87,15-7.87,39.75t7.87,39.62q7.88,14.88,21.75,21.63t31.63,6.75q18.24,0,32-6.75t21.5-21.63q7.74-14.87,7.75-39.62T1241.5,273.5Zm-36.63,88q-6.61,14.75-16.87,14.75-10,0-16.75-14.75t-6.75-48.25q0-33.5,6.75-48.38T1188,250q10.24,0,16.87,14.87t6.63,48.38Q1211.5,346.75,1204.87,361.5Z" transform="translate(-367.51 -182)"/><path d="M1329.25,245q18.24,0,32,6.75t21.5,21.75q7.74,15,7.75,39.75t-7.75,39.62q-7.76,14.88-21.5,21.63t-32,6.75q-17.76,0-31.63-6.75t-21.75-21.63Q1268,338,1268,313.25t7.87-39.75q7.88-15,21.75-21.75T1329.25,245Zm0,5q-10,0-16.75,14.87t-6.75,48.38q0,33.5,6.75,48.25t16.75,14.75q10.24,0,16.87-14.75t6.63-48.25q0-33.5-6.63-48.38T1329.25,250Z" transform="translate(-367.51 -182)"/><path d="M1532.49,366.87q-3.49-5.37-3.5-16.62V182a133.75,133.75,0,0,1-17,2.62q-9.24.88-19.5.88-7.5,0-15.5-.75V190q9.26,0,12.63,5.37T1493,212v42.38a26.3,26.3,0,0,0-8.37-5.76,48.55,48.55,0,0,0-19.38-3.62,55,55,0,0,0-28.62,7.5q-12.63,7.5-19.88,22.37t-7.25,37.63q0,24,6.5,39.12T1434.12,374a48.82,48.82,0,0,0,26.37,7.25q13.5,0,21.88-6.88c4.59-3.76,8.12-9,10.62-15.63v21.51a99.86,99.86,0,0,1,16.88-2.75q9.12-.75,19.62-.75,7.76,0,15.5.75v-5.25Q1536,372.25,1532.49,366.87Zm-46.5-3.12q-6.75,6.75-15.25,6.75a16.81,16.81,0,0,1-12.37-5.5q-5.38-5.5-8.25-18.13T1447.24,313q-.24-31,7.25-45.88t20.25-14.87a25.63,25.63,0,0,1,11.38,2.62,18.63,18.63,0,0,1,6.87,5.85v87.75Q1491.84,357.89,1486,363.75Z" transform="translate(-367.51 -182)"/></svg>